<svg id="Capa_1" enable-background="new 0 0 512 512" height="512" viewBox="0 0 512 512" width="512" xmlns="http://www.w3.org/2000/svg"><g><path d="m363.28 43.101c-6.683-25.377-30.258-43.101-57.329-43.101-20.702 0-39.336 10.362-49.945 26.575-10.625-16.213-29.264-26.575-49.957-26.575-27.072 0-50.646 17.724-57.329 43.101-1.07 4.065 1.358 8.228 5.426 9.298 4.067 1.069 8.232-1.358 9.303-5.423 4.923-18.696 22.442-31.753 42.601-31.753 20.16 0 37.678 13.057 42.601 31.753.006.023.018.044.024.067.103.377.233.745.391 1.099.011.025.02.052.031.077.154.333.338.651.538.959.043.067.085.134.13.2.2.289.421.562.66.821.049.053.099.103.15.155.258.264.53.515.827.741 0 0 .001.001.001.001.297.226.616.425.949.608.047.026.093.054.141.079.317.165.647.309.992.43.073.026.147.046.22.07.127.04.25.086.38.12.186.049.371.082.557.116.054.01.106.025.161.034.367.06.732.085 1.095.091.038.001.074.009.112.009.042 0 .085-.007.127-.008.247-.004.492-.02.735-.047.046-.005.092-.007.138-.013.31-.041.615-.101.915-.179.009-.002.018-.003.027-.005.048-.013.093-.031.141-.045.182-.052.362-.106.539-.171.094-.034.183-.074.275-.112.134-.055.267-.11.397-.172.113-.054.221-.114.33-.173.105-.057.21-.112.311-.174.115-.069.226-.144.336-.219.093-.063.185-.125.275-.192.105-.078.205-.16.305-.243.092-.076.184-.152.273-.233.086-.079.169-.16.251-.243.095-.095.189-.19.28-.29.068-.076.132-.154.197-.232.094-.113.187-.227.276-.347.055-.075.107-.152.159-.229.086-.126.171-.252.249-.384.05-.084.096-.17.143-.256.069-.127.139-.254.201-.386.052-.109.097-.221.144-.333s.095-.223.137-.338c.055-.151.1-.305.145-.459.02-.069.047-.135.065-.205 4.897-18.691 22.403-31.744 42.57-31.744 20.159 0 37.678 13.057 42.601 31.753.899 3.416 3.984 5.676 7.359 5.676.642 0 1.294-.082 1.943-.253 4.067-1.067 6.497-5.23 5.426-9.296z" fill="#685d68"/><g><path clip-rule="evenodd" d="m101.373 139.139v278.761l51.547 10 51.547-10 10.154-133.483-10.154-145.278-56.379-9.436z" fill="#da4a54" fill-rule="evenodd"/></g><g><path clip-rule="evenodd" d="m204.467 139.139v76.638c14.555-10.299 32.332-16.369 51.547-16.369 19.186 0 36.963 6.07 51.518 16.369v-76.638l-54.596-9.436z" fill="#da4a54" fill-rule="evenodd"/></g><g><path clip-rule="evenodd" d="m297.379 287.581 10.154 130.319 52.326 15 50.768-15v-278.761l-50.425-20.943-52.669 20.943z" fill="#da4a54" fill-rule="evenodd"/></g><g><path clip-rule="evenodd" d="m204.467 341.233v76.667l51.547 9 51.519-9v-76.667c-14.555 10.328-32.332 16.398-51.518 16.398-19.216 0-36.993-6.07-51.548-16.398z" fill="#da4a54" fill-rule="evenodd"/></g><g><path clip-rule="evenodd" d="m101.373 66.701v30.753h103.094l6.443-17.002-6.443-13.751c0-11.91-9.751-21.662-21.66-21.662h-26.723-33.051c-11.908 0-21.66 9.752-21.66 21.662z" fill="#da4a54" fill-rule="evenodd"/></g><g><path clip-rule="evenodd" d="m204.467 66.701v30.753h103.065v-30.753c0-11.91-9.751-21.662-21.66-21.662h-29.858-29.887c-11.908 0-21.66 9.752-21.66 21.662z" fill="#da4a54" fill-rule="evenodd"/></g><g><path clip-rule="evenodd" d="m307.533 66.701-7.997 13.003 7.997 17.75h103.094v-30.753c0-11.91-9.751-21.662-21.66-21.662h-33.051-26.723c-11.909 0-21.66 9.752-21.66 21.662z" fill="#da4a54" fill-rule="evenodd"/></g><g><path clip-rule="evenodd" d="m101.373 490.338c0 11.91 9.751 21.662 21.66 21.662h59.774c11.909 0 21.66-9.752 21.66-21.662v-10.27-20.512h-103.094z" fill="#da4a54" fill-rule="evenodd"/></g><g><path clip-rule="evenodd" d="m204.467 459.556v30.782c0 11.91 9.751 21.662 21.66 21.662h59.745c11.909 0 21.66-9.752 21.66-21.662v-30.782z" fill="#da4a54" fill-rule="evenodd"/></g><g><path clip-rule="evenodd" d="m307.533 459.556v30.782c0 11.91 9.751 21.662 21.66 21.662h59.774c11.909 0 21.66-9.752 21.66-21.662v-30.782z" fill="#da4a54" fill-rule="evenodd"/></g><g><path clip-rule="evenodd" d="m90.5 428.774v30.062c0 5.984 4.89 10.874 10.873 10.874h103.094 103.065 103.094c5.983 0 10.873-4.891 10.873-10.874v-30.062c0-5.984-4.89-10.874-10.873-10.874h-103.093-103.066-103.094c-5.983 0-10.873 4.891-10.873 10.874z" fill="#e7a561" fill-rule="evenodd"/></g><g><path clip-rule="evenodd" d="m90.5 98.202v30.034c0 6.013 4.89 10.903 10.873 10.903h103.094 103.065 103.094c5.983 0 10.873-4.891 10.873-10.903v-30.034c0-5.984-4.89-10.903-10.873-10.903h-103.093-103.066-103.094c-5.983 0-10.873 4.919-10.873 10.903z" fill="#e7a561" fill-rule="evenodd"/></g><g><path clip-rule="evenodd" d="m169.431 139.139v117.546c5.264-20.943 17.921-38.923 35.036-51.034v-66.511h-35.036z" fill="#c32430" fill-rule="evenodd"/></g><g><path clip-rule="evenodd" d="m169.431 45.039v42.26h35.036v-20.598c0-11.91-9.751-21.662-21.66-21.662z" fill="#c32430" fill-rule="evenodd"/></g><g><path clip-rule="evenodd" d="m169.431 300.354v117.546h35.036v-66.512c-17.115-12.111-29.772-30.12-35.036-51.034z" fill="#c32430" fill-rule="evenodd"/></g><g><path clip-rule="evenodd" d="m169.431 469.711v42.289h13.376c11.909 0 21.66-9.752 21.66-21.662v-10.27-10.356h-35.036z" fill="#c32430" fill-rule="evenodd"/></g><g><path clip-rule="evenodd" d="m204.467 205.65c-22.811 16.168-37.711 42.778-37.711 72.869s14.9 56.702 37.711 72.869c14.555 10.328 32.332 16.369 51.547 16.369 19.186 0 36.963-6.041 51.518-16.369 22.811-16.168 37.711-42.778 37.711-72.869s-14.9-56.702-37.711-72.869c-14.555-10.328-32.332-16.398-51.518-16.398-19.215 0-36.992 6.07-51.547 16.398z" fill="#bcd0df" fill-rule="evenodd"/></g><g><path clip-rule="evenodd" d="m277.646 469.711v20.627c0 11.91-9.723 21.662-21.631 21.662h29.858c11.909 0 21.66-9.752 21.66-21.662v-20.627z" fill="#c32430" fill-rule="evenodd"/></g><g><path clip-rule="evenodd" d="m277.646 365.111v52.789h29.887v-66.512c-1.582 1.151-3.25 2.215-4.919 3.251-7.623 4.689-16.022 8.257-24.968 10.472z" fill="#c32430" fill-rule="evenodd"/></g><g><path clip-rule="evenodd" d="m300.83 237.41c6.069 12.054 9.521 25.69 9.521 40.131 0 15.19-3.797 29.487-10.47 41.972-8.745 16.369-22.408 29.689-39.034 37.974-7.68 3.826-15.993 6.588-24.709 8.055 6.386 1.467 13.031 2.215 19.877 2.215 7.45 0 14.699-.921 21.631-2.647 8.946-2.215 17.345-5.782 24.968-10.472 1.668-1.036 3.337-2.1 4.919-3.251 22.811-16.168 37.711-42.778 37.711-72.869s-14.9-56.702-37.711-72.869c-1.409-1.007-2.877-1.985-4.344-2.906-7.795-4.862-16.367-8.544-25.543-10.846-6.932-1.726-14.181-2.647-21.631-2.647-5.149 0-10.154.431-15.044 1.266 8.572 1.956 16.655 5.121 24.105 9.35 15.302 8.69 27.786 21.779 35.754 37.544z" fill="#81a7c6" fill-rule="evenodd"/></g><g><path clip-rule="evenodd" d="m355.916 45.039c11.909 0 21.66 9.752 21.66 21.662v20.598h33.051v-20.598c0-11.91-9.751-21.662-21.66-21.662z" fill="#c32430" fill-rule="evenodd"/></g><g><path clip-rule="evenodd" d="m377.576 139.139h33.051v278.761h-33.051z" fill="#c32430" fill-rule="evenodd"/></g><g><path clip-rule="evenodd" d="m377.576 490.338c0 11.91-9.751 21.662-21.66 21.662h33.051c11.909 0 21.66-9.752 21.66-21.662v-20.627h-33.051z" fill="#c32430" fill-rule="evenodd"/></g><g><path clip-rule="evenodd" d="m351.946 98.202v30.034c0 6.013-4.919 10.903-10.902 10.903h36.532 33.051c5.983 0 10.873-4.891 10.873-10.903v-30.034c0-5.984-4.89-10.903-10.873-10.903h-33.051-36.532c5.724 0 10.471 4.517 10.873 10.155 0 .259.029.489.029.748z" fill="#e28424" fill-rule="evenodd"/></g><g><path clip-rule="evenodd" d="m351.946 428.774v30.062c0 .23-.029.489-.029.719-.403 5.667-5.149 10.155-10.873 10.155h36.532 33.051c5.983 0 10.873-4.891 10.873-10.874v-30.062c0-5.984-4.89-10.874-10.873-10.874h-33.051-36.532c5.983 0 10.902 4.891 10.902 10.874z" fill="#e28424" fill-rule="evenodd"/></g><g><path clip-rule="evenodd" d="m256.014 45.039c11.909 0 21.631 9.752 21.631 21.662v20.598h25.342 4.545v-20.598c0-11.91-9.751-21.662-21.66-21.662z" fill="#c32430" fill-rule="evenodd"/></g><g><path clip-rule="evenodd" d="m277.646 139.139v52.76c9.176 2.301 17.748 5.984 25.543 10.846 1.467.921 2.934 1.899 4.344 2.906v-66.511h-29.887z" fill="#c32430" fill-rule="evenodd"/></g><g><path d="m258.2 292.776h-30.232c-4.206 0-7.615-3.408-7.615-7.611s3.409-7.612 7.615-7.612h25.92l23.613-39.341c2.164-3.605 6.843-4.774 10.448-2.611 3.606 2.163 4.776 6.838 2.613 10.443l-25.832 43.036c-1.376 2.293-3.855 3.696-6.53 3.696z" fill="#685d68"/></g><g><path d="m256.014 375.369c-53.416 0-96.873-43.446-96.873-96.85 0-53.419 43.457-96.879 96.873-96.879 53.4 0 96.844 43.459 96.844 96.879.001 53.404-43.444 96.85-96.844 96.85zm0-178.505c-45.018 0-81.643 36.63-81.643 81.656 0 45.009 36.625 81.627 81.643 81.627 45.003 0 81.614-36.617 81.614-81.627.001-45.026-36.611-81.656-81.614-81.656z" fill="#685d68"/></g></g></svg>