<?xml version="1.0"?>
<svg xmlns="http://www.w3.org/2000/svg" xmlns:xlink="http://www.w3.org/1999/xlink" version="1.1" id="Capa_1" x="0px" y="0px" viewBox="0 0 512 512" style="enable-background:new 0 0 512 512;" xml:space="preserve" width="512px" height="512px"><g><g>
	<g>
		<g>
			<path d="M221.321,461.905c-4.703,0.303-8.271,4.359-7.971,9.062c0.139,2.261,1.173,4.373,2.874,5.87     c1.701,1.496,3.928,2.252,6.188,2.101c22.369-1.425,44.806-1.425,67.175,0c0.188,0.013,0.371,0.017,0.554,0.017     c4.607-0.001,8.382-3.659,8.527-8.264c0.145-4.605-3.391-8.494-7.99-8.785C267.583,460.438,244.417,460.438,221.321,461.905z" data-original="#000000" class="active-path" data-old_color="#000000" fill="#FFFFFF"/>
			<path d="M256,230.4c4.713,0,8.533-3.82,8.533-8.533v-76.8c0-4.713-3.82-8.533-8.533-8.533s-8.533,3.82-8.533,8.533v76.8     C247.467,226.58,251.287,230.4,256,230.4z" data-original="#000000" class="active-path" data-old_color="#000000" fill="#FFFFFF"/>
			<path d="M324.267,230.4c4.713,0,8.533-3.82,8.533-8.533v-25.6c17.639,1.076,32.859-12.241,34.133-29.867     c-1.275-17.625-16.495-30.943-34.133-29.867c-2.03,0.004-4.057,0.171-6.061,0.499c-0.794-0.291-1.628-0.46-2.472-0.499     c-4.713,0-8.533,3.82-8.533,8.533v76.8C315.733,226.58,319.554,230.4,324.267,230.4z M332.8,153.6     c9.25,0,17.067,5.862,17.067,12.8c0,6.938-7.817,12.8-17.067,12.8V153.6z" data-original="#000000" class="active-path" data-old_color="#000000" fill="#FFFFFF"/>
			<path d="M153.6,230.4c4.713,0,8.533-3.82,8.533-8.533v-13.533L181.7,227.9c3.338,3.296,8.711,3.279,12.029-0.038     c3.317-3.317,3.334-8.691,0.038-12.029l-21.156-21.156c13.327-3.067,22.991-14.618,23.656-28.277     c-1.275-17.625-16.495-30.943-34.133-29.867c-2.03,0.004-4.057,0.171-6.061,0.499c-0.794-0.291-1.628-0.46-2.472-0.499     c-4.713,0-8.533,3.82-8.533,8.533v76.8C145.067,226.58,148.887,230.4,153.6,230.4z M162.133,153.6     c9.25,0,17.067,5.862,17.067,12.8c0,6.938-7.817,12.8-17.067,12.8V153.6z" data-original="#000000" class="active-path" data-old_color="#000000" fill="#FFFFFF"/>
			<path d="M214.013,225.108c0.187,0.544,0.447,1.062,0.771,1.538c0.341,0.425,0.683,0.85,1.025,1.279c3.365,3.3,8.752,3.3,12.117,0     c0.341-0.429,0.683-0.854,1.021-1.279c0.324-0.476,0.583-0.993,0.771-1.538c0.245-0.485,0.418-1.003,0.513-1.538     c0.098-0.563,0.155-1.133,0.171-1.704c-0.013-1.116-0.245-2.219-0.683-3.246c-0.434-1.032-1.04-1.983-1.792-2.813     c-3.421-3.158-8.695-3.158-12.117,0c-0.754,0.828-1.362,1.78-1.796,2.813c-0.436,1.027-0.667,2.13-0.679,3.246     c0.013,0.572,0.07,1.141,0.171,1.704C213.596,224.106,213.767,224.624,214.013,225.108z" data-original="#000000" class="active-path" data-old_color="#000000" fill="#FFFFFF"/>
			<path d="M286.888,229.717c2.067,0.911,4.421,0.911,6.487,0c1.044-0.414,1.999-1.022,2.817-1.792c3.3-3.365,3.3-8.752,0-12.117     c-0.816-0.772-1.772-1.382-2.817-1.796c-2.061-0.938-4.427-0.938-6.487,0c-1.033,0.434-1.984,1.042-2.813,1.796     c-3.3,3.365-3.3,8.752,0,12.117C284.904,228.677,285.855,229.282,286.888,229.717z" data-original="#000000" class="active-path" data-old_color="#000000" fill="#FFFFFF"/>
			<path d="M153.6,290.133h85.333c4.713,0,8.533-3.82,8.533-8.533s-3.82-8.533-8.533-8.533H153.6c-4.713,0-8.533,3.821-8.533,8.533     S148.887,290.133,153.6,290.133z" data-original="#000000" class="active-path" data-old_color="#000000" fill="#FFFFFF"/>
			<path d="M273.067,290.133h17.067c4.713,0,8.533-3.82,8.533-8.533s-3.82-8.533-8.533-8.533h-17.067     c-4.713,0-8.533,3.821-8.533,8.533S268.354,290.133,273.067,290.133z" data-original="#000000" class="active-path" data-old_color="#000000" fill="#FFFFFF"/>
			<path d="M324.267,290.133H358.4c4.713,0,8.533-3.82,8.533-8.533s-3.82-8.533-8.533-8.533h-34.133     c-4.713,0-8.533,3.821-8.533,8.533S319.554,290.133,324.267,290.133z" data-original="#000000" class="active-path" data-old_color="#000000" fill="#FFFFFF"/>
			<path d="M358.4,341.333h-85.333c-4.713,0-8.533,3.82-8.533,8.533s3.821,8.533,8.533,8.533H358.4c4.713,0,8.533-3.82,8.533-8.533     S363.113,341.333,358.4,341.333z" data-original="#000000" class="active-path" data-old_color="#000000" fill="#FFFFFF"/>
			<path d="M238.933,341.333h-17.067c-4.713,0-8.533,3.82-8.533,8.533s3.82,8.533,8.533,8.533h17.067     c4.713,0,8.533-3.82,8.533-8.533S243.646,341.333,238.933,341.333z" data-original="#000000" class="active-path" data-old_color="#000000" fill="#FFFFFF"/>
			<path d="M153.6,358.4h34.133c4.713,0,8.533-3.82,8.533-8.533s-3.82-8.533-8.533-8.533H153.6c-4.713,0-8.533,3.82-8.533,8.533     S148.887,358.4,153.6,358.4z" data-original="#000000" class="active-path" data-old_color="#000000" fill="#FFFFFF"/>
			<path d="M153.6,324.267h34.133c4.713,0,8.533-3.82,8.533-8.533s-3.82-8.533-8.533-8.533H153.6c-4.713,0-8.533,3.82-8.533,8.533     S148.887,324.267,153.6,324.267z" data-original="#000000" class="active-path" data-old_color="#000000" fill="#FFFFFF"/>
			<path d="M358.4,307.2H221.867c-4.713,0-8.533,3.82-8.533,8.533s3.82,8.533,8.533,8.533H358.4c4.713,0,8.533-3.82,8.533-8.533     S363.113,307.2,358.4,307.2z" data-original="#000000" class="active-path" data-old_color="#000000" fill="#FFFFFF"/>
			<path d="M452.267,315.733h25.6c18.851,0,34.133-15.282,34.133-34.133s-15.282-34.133-34.133-34.133h-76.8v-93.725     c0.033-20.506-3.856-40.83-11.458-59.875h37.058c18.851,0,34.133-15.282,34.133-34.133S445.518,25.6,426.667,25.6h-90.688     c-47.856-34.133-112.101-34.133-159.957,0H34.133C15.282,25.6,0,40.882,0,59.733s15.282,34.133,34.133,34.133h25.6     c9.426,0,17.067,7.641,17.067,17.067S69.159,128,59.733,128H51.2c-18.851,0-34.133,15.282-34.133,34.133     s15.282,34.133,34.133,34.133h59.733v249.207c-24.284,6.226-48.145,13.998-71.438,23.267c-3.239,1.298-5.362,4.436-5.362,7.925     v18.267c-0.303,9.093,6.8,16.721,15.892,17.067h411.95c9.092-0.344,16.196-7.973,15.892-17.067v-18.267     c-0.001-3.49-2.126-6.629-5.367-7.925c-23.291-9.269-47.151-17.04-71.433-23.266v-27.342h51.2     c18.851,0,34.133-15.282,34.133-34.133c0-18.851-15.282-34.133-34.133-34.133c-9.426,0-17.067-7.641-17.067-17.067     C435.2,323.374,442.841,315.733,452.267,315.733z M426.667,42.667c9.426,0,17.067,7.641,17.067,17.067S436.092,76.8,426.667,76.8     h-45.268c-6.834-12.5-15.373-23.987-25.373-34.133H426.667z M256,17.067c70.579,0,128,61.313,128,136.675v287.6     c-84.263-19.109-171.736-19.11-256-0.001V153.742C128,78.379,185.421,17.067,256,17.067z M51.2,179.2     c-9.426,0-17.067-7.641-17.067-17.067s7.641-17.067,17.067-17.067h8.533c18.851,0,34.133-15.282,34.133-34.133     S78.585,76.8,59.733,76.8h-25.6c-9.426,0-17.067-7.641-17.067-17.067s7.641-17.067,17.067-17.067h121.842     c-29.053,29.651-45.238,69.564-45.042,111.075V179.2H51.2z M460.767,482.462l-0.067,12.471H51.2v-12.459     c22.817-8.83,46.177-16.182,69.938-22.012c0.644-0.091,1.276-0.256,1.883-0.491C235.245,432.647,353.157,440.499,460.767,482.462     z M452.267,366.933c9.426,0,17.067,7.641,17.067,17.067s-7.641,17.067-17.067,17.067h-51.2V264.533h76.8     c6.903-0.005,13.129,4.151,15.77,10.53c2.641,6.378,1.176,13.719-3.711,18.595c-3.19,3.211-7.532,5.015-12.058,5.008h-25.6     c-18.851,0-34.133,15.282-34.133,34.133C418.133,351.651,433.415,366.933,452.267,366.933z" data-original="#000000" class="active-path" data-old_color="#000000" fill="#FFFFFF"/>
		</g>
	</g>
</g></g> </svg>
