<svg height="512" viewBox="0 0 64 64" width="512" xmlns="http://www.w3.org/2000/svg"><g id="man-avatar-laptop-work_at_home" data-name="man-avatar-laptop-work at home"><path d="m11 37h2a0 0 0 0 1 0 0v17a0 0 0 0 1 0 0h-6a0 0 0 0 1 0 0v-13a4 4 0 0 1 4-4z" fill="#2488ff"/><circle cx="11" cy="54" fill="#f5e0cd" r="6"/><path d="m51 37h6a0 0 0 0 1 0 0v17a0 0 0 0 1 0 0h-2a4 4 0 0 1 -4-4v-13a0 0 0 0 1 0 0z" fill="#2488ff" transform="matrix(-1 0 0 -1 108 91)"/><circle cx="53" cy="54" fill="#f5e0cd" r="6"/><path d="m22 19h20v13h-20z" fill="#f5e0cd"/><path d="m3 57h58v4h-58z" fill="#b39a7c"/><path d="m55 54v1a2.006 2.006 0 0 1 -2 2h-42a2.006 2.006 0 0 1 -2-2v-1a1 1 0 0 1 1-1h44a1 1 0 0 1 1 1z" fill="#d8d7da"/><path d="m22 22v6h-2a2.006 2.006 0 0 1 -2-2v-2a2.006 2.006 0 0 1 2-2z" fill="#f0d0b4"/><path d="m46 24v2a2.006 2.006 0 0 1 -2 2h-2v-6h2a2.006 2.006 0 0 1 2 2z" fill="#f0d0b4"/><path d="m53 33v20h-42v-20a2.006 2.006 0 0 1 2-2h38a2.006 2.006 0 0 1 2 2z" fill="#9bfbff"/><path d="m42 19h-24a4.985 4.985 0 0 1 5-5l-2.07-2.07a4.98 4.98 0 0 1 6.8-.22 8.994 8.994 0 0 1 14.27 7.29z" fill="#6a563d"/><circle cx="32" cy="42" fill="#ffda44" r="3"/><g fill="#57565c"><path d="m28 25a1 1 0 0 0 -1 1v2a1 1 0 0 0 2 0v-2a1 1 0 0 0 -1-1z"/><path d="m36 25a1 1 0 0 0 -1 1v2a1 1 0 0 0 2 0v-2a1 1 0 0 0 -1-1z"/><path d="m27 19.146h2v6.708h-2z" transform="matrix(.447 -.894 .894 .447 -4.647 37.482)"/><path d="m32.646 21.5h6.708v2h-6.708z" transform="matrix(.894 -.447 .447 .894 -6.262 18.475)"/></g><path d="m22.76 8h2a1.045 1.045 0 0 1 .141-.568 2.955 2.955 0 0 0 .339-1.432 2.971 2.971 0 0 0 -.34-1.435 1.03 1.03 0 0 1 -.14-.565 1.026 1.026 0 0 1 .141-.565 2.966 2.966 0 0 0 .339-1.435h-2a1.026 1.026 0 0 1 -.141.565 2.97 2.97 0 0 0 -.339 1.435 2.955 2.955 0 0 0 .34 1.431 1.045 1.045 0 0 1 .14.569 1.033 1.033 0 0 1 -.141.567 2.968 2.968 0 0 0 -.339 1.433z" fill="#d80027"/><path d="m30.76 8h2a1.045 1.045 0 0 1 .141-.568 2.955 2.955 0 0 0 .339-1.432 2.971 2.971 0 0 0 -.34-1.435 1.03 1.03 0 0 1 -.14-.565 1.026 1.026 0 0 1 .141-.565 2.966 2.966 0 0 0 .339-1.435h-2a1.026 1.026 0 0 1 -.141.565 2.97 2.97 0 0 0 -.339 1.435 2.955 2.955 0 0 0 .34 1.431 1.045 1.045 0 0 1 .14.569 1.033 1.033 0 0 1 -.141.567 2.968 2.968 0 0 0 -.339 1.433z" fill="#d80027"/><path d="m38.76 8h2a1.045 1.045 0 0 1 .141-.568 2.955 2.955 0 0 0 .339-1.432 2.971 2.971 0 0 0 -.34-1.435 1.03 1.03 0 0 1 -.14-.565 1.026 1.026 0 0 1 .141-.565 2.966 2.966 0 0 0 .339-1.435h-2a1.026 1.026 0 0 1 -.141.565 2.97 2.97 0 0 0 -.339 1.435 2.955 2.955 0 0 0 .34 1.431 1.045 1.045 0 0 1 .14.569 1.033 1.033 0 0 1 -.141.567 2.968 2.968 0 0 0 -.339 1.433z" fill="#d80027"/></g></svg>