<?xml version="1.0" encoding="utf-8"?>
<!-- Generator: Adobe Illustrator 16.0.3, SVG Export Plug-In . SVG Version: 6.00 Build 0)  -->
<!DOCTYPE svg PUBLIC "-//W3C//DTD SVG 1.1//EN" "http://www.w3.org/Graphics/SVG/1.1/DTD/svg11.dtd">
<svg version="1.1" id="Calque_1" xmlns="http://www.w3.org/2000/svg" xmlns:xlink="http://www.w3.org/1999/xlink" x="0px" y="0px"
	 width="595.28px" height="291px" viewBox="0 0 595.28 291" enable-background="new 0 0 595.28 291" xml:space="preserve">
<g>
	<g>
		<rect x="168.058" y="179.542" fill="#2A2B2B" width="7.909" height="15.404"/>
		<circle fill="#EF4323" cx="172.013" cy="202.854" r="14.41"/>
		<path fill="#2A2B2B" d="M179.921,202.855c0,4.365-3.54,7.906-7.907,7.906c-4.368,0-7.909-3.541-7.909-7.906
			c0-4.37,3.541-7.909,7.909-7.909C176.381,194.946,179.921,198.485,179.921,202.855z"/>
	</g>
	<g>
		
			<rect x="404.92" y="193.925" transform="matrix(0.9223 -0.3864 0.3864 0.9223 -47.6097 174.1995)" fill="#2A2B2B" width="9.103" height="23.183"/>
		<circle fill="#EF4323" cx="417.681" cy="225.118" r="16.585"/>
		<path fill="#2A2B2B" d="M426.077,221.604c1.94,4.634-0.241,9.969-4.881,11.91c-4.636,1.942-9.972-0.244-11.911-4.877
			c-1.943-4.642,0.242-9.976,4.878-11.916C418.803,214.778,424.133,216.963,426.077,221.604z"/>
	</g>
	<g>
		
			<rect x="385.196" y="193.925" transform="matrix(-0.9223 -0.3865 0.3865 -0.9223 669.7833 545.6914)" fill="#2A2B2B" width="9.102" height="23.183"/>
		<circle fill="#EF4323" cx="381.538" cy="225.118" r="16.586"/>
		<path fill="#2A2B2B" d="M373.141,221.604c-1.941,4.634,0.242,9.969,4.881,11.91c4.637,1.942,9.972-0.244,11.912-4.877
			c1.943-4.642-0.242-9.976-4.88-11.916C380.416,214.778,375.084,216.963,373.141,221.604z"/>
	</g>
	<path fill="#BCC1C1" d="M496.289,168.303h9.355c4.301,0,7.789-3.488,7.789-7.792c0-4.302-3.488-7.789-7.789-7.789h-9.355V168.303z"
		/>
	<path fill="#2A2B2B" d="M502.83,200.492V120.7c0-3.612-2.928-6.539-6.541-6.539v92.872
		C499.902,207.033,502.83,204.105,502.83,200.492z"/>
	<g>
		<path fill="#FFD646" d="M477.484,135.759v24.752H94.847c-1.693-41.518,12.764-74.967,23.527-93.838
			c5.828-10.204,17.604-15.458,29.087-12.965c8.043,1.749,14.845,7.096,18.459,14.497l13.644,27.942
			c13.03,26.701,46.025,26.901,54.334,26.06c76.741-7.695,132.651-5.882,164.899-3.24v12.202h37.477l41.131,4.575
			C477.432,135.745,477.458,135.745,477.484,135.759z"/>
	</g>
	<g>
		<path fill="#FBAB20" d="M477.484,160.511v32.556c-1.24,0.453-2.521,0.854-3.841,1.173
			c-96.253,23.501-306.937,0.308-378.797-33.729H477.484z"/>
	</g>
	<path fill="#0C82C1" d="M436.273,131.169h-37.477v-12.202c9.242,0.759,16.551,1.586,21.845,2.28
		C427.071,122.075,432.793,125.702,436.273,131.169z"/>
	<path fill="#494A4A" d="M496.289,156.844v3.667h-18.805v-24.752C488.195,136.972,496.289,146.054,496.289,156.844z"/>
	<path fill="#2A2B2B" d="M496.289,160.511c0,17.859-7.402,28.262-18.805,32.556v-32.556H496.289z"/>
	<g>
		<path fill="#718D3A" d="M154.659,133.894c0,3.486-2.827,6.305-6.306,6.305H76.697c-3.477,0-6.304-2.819-6.304-6.305H154.659z"/>
		<path fill="#81A83F" d="M154.659,133.894H70.393c0-3.47,2.826-6.307,6.304-6.307h71.656
			C151.832,127.586,154.659,130.415,154.659,133.894z"/>
	</g>
	<g>
		<path fill="#81A83F" d="M406.905,54.905l-92.324,4.616c-8.617,0.43-15.385,7.544-15.385,16.175v60.063h99.035l24.426-58.433
			C427.252,66.333,418.805,54.309,406.905,54.905L406.905,54.905z"/>
	</g>
	<rect x="349.472" y="102.729" fill="#FEF05A" width="11.341" height="86.388"/>
	<path fill="#FEF05A" d="M326.354,102.729h56.586c4.702,0,8.516-3.812,8.516-8.515h-73.617
		C317.838,98.917,321.651,102.729,326.354,102.729z"/>
	<circle fill="#2A2B2B" cx="247.056" cy="144.117" r="7.071"/>
	<circle fill="#2A2B2B" cx="267.786" cy="144.117" r="7.072"/>
	<circle fill="#2A2B2B" cx="288.516" cy="144.117" r="7.072"/>
	<g>
		<path fill="#718D3A" d="M413.266,196.976c0,4.72-3.826,8.534-8.533,8.534h-97.001c-4.707,0-8.535-3.814-8.535-8.534H413.266z"/>
		<path fill="#81A83F" d="M413.266,196.976H299.196c0-4.698,3.826-8.537,8.535-8.537h97.001
			C409.439,188.439,413.266,192.267,413.266,196.976z"/>
	</g>
</g>
</svg>
