<?xml version="1.0" encoding="UTF-8" standalone="no"?>
<!DOCTYPE svg PUBLIC "-//W3C//DTD SVG 1.1//EN" "http://www.w3.org/Graphics/SVG/1.1/DTD/svg11.dtd">
<svg version="1.1" xmlns="http://www.w3.org/2000/svg" xmlns:xlink="http://www.w3.org/1999/xlink" preserveAspectRatio="xMidYMid meet" viewBox="0 0 478 511" width="478" height="511"><defs><path d="M52.83 162.82C24.25 162.82 1.08 186 1.08 214.58C1.08 253.7 33.58 277.72 62.17 277.72C90.75 277.72 104.59 243.16 104.59 214.58C104.59 186 81.41 162.82 52.83 162.82Z" id="bAaIh75Fu"></path><linearGradient id="gradientb3YsccpuYl" gradientUnits="userSpaceOnUse" x1="61.73" y1="220.27" x2="11.3" y2="220.27"><stop style="stop-color: #f2ae6f;stop-opacity: 1" offset="0%"></stop><stop style="stop-color: #f2d1a5;stop-opacity: 1" offset="100%"></stop></linearGradient><path d="M426.51 162.82C455.1 162.82 478.27 186 478.27 214.58C478.27 253.7 445.76 277.72 417.18 277.72C388.59 277.72 374.76 243.16 374.76 214.58C374.76 186 397.93 162.82 426.51 162.82Z" id="c41DFpYWwL"></path><linearGradient id="gradientc13IDU0LtF" gradientUnits="userSpaceOnUse" x1="417.61" y1="220.27" x2="468.04" y2="220.27"><stop style="stop-color: #f2ae6f;stop-opacity: 1" offset="0%"></stop><stop style="stop-color: #f2d1a5;stop-opacity: 1" offset="100%"></stop></linearGradient><path d="M144.56 349C80.54 359.78 40.1 420.45 30.35 482.2C27.96 497.32 39.65 511 54.96 511C57.12 511 67.94 511 87.41 511L192.19 349C166.79 349 150.91 349 144.56 349Z" id="k16WkS7VQA"></path><linearGradient id="gradientaEMcdAZT" gradientUnits="userSpaceOnUse" x1="122.49" y1="430" x2="33" y2="430"><stop style="stop-color: #f4d952;stop-opacity: 1" offset="0%"></stop><stop style="stop-color: #f9edaf;stop-opacity: 1" offset="100%"></stop></linearGradient><path d="M144.56 349C104.86 355.69 74.23 381.56 54.36 414.98C68.61 418.18 79.3 431.68 79.3 447.86C79.3 466.42 65.22 481.46 47.84 481.46C41.79 481.46 36.14 479.63 31.34 476.47C30.98 478.38 30.65 480.29 30.35 482.2C27.96 497.32 39.65 511 54.96 511C57.12 511 67.94 511 87.41 511L192.19 349C166.79 349 150.91 349 144.56 349Z" id="av9c9iWU"></path><linearGradient id="gradientc474B0PIZi" gradientUnits="userSpaceOnUse" x1="141.81" y1="430" x2="52.31" y2="430"><stop style="stop-color: #74d2e8;stop-opacity: 1" offset="0%"></stop><stop style="stop-color: #baeaf5;stop-opacity: 1" offset="100%"></stop></linearGradient><path d="M334.78 349C398.8 359.78 439.25 420.45 449 482.2C451.39 497.32 439.7 511 424.39 511C422.22 511 411.41 511 391.94 511L287.15 349C312.56 349 328.43 349 334.78 349Z" id="e7O2kF6ue"></path><linearGradient id="gradienta3wbxaxfD1" gradientUnits="userSpaceOnUse" x1="337.54" y1="430" x2="427.03" y2="430"><stop style="stop-color: #74d2e8;stop-opacity: 1" offset="0%"></stop><stop style="stop-color: #baeaf5;stop-opacity: 1" offset="100%"></stop></linearGradient><path d="M391.94 511C391.94 407.81 323.77 324.16 239.67 324.16C155.58 324.16 87.41 407.81 87.41 511C148.31 511 331.03 511 391.94 511Z" id="ceqy8BBhe"></path><linearGradient id="gradientbXQKYl9NZ" gradientUnits="userSpaceOnUse" x1="239.67" y1="433.13" x2="239.67" y2="602.23"><stop style="stop-color: #53aae6;stop-opacity: 1" offset="0%"></stop><stop style="stop-color: #a4d2f0;stop-opacity: 1" offset="100%"></stop></linearGradient><path d="M357.79 317.6C399.89 328.97 427.65 377.12 391.94 408.9C358.69 438.48 301.78 462.71 250.17 472.03C243.22 473.29 236.12 473.29 229.17 472.03C177.56 462.71 120.65 438.48 87.41 408.9C51.69 377.12 79.45 328.97 121.55 317.6C168.8 317.6 310.54 317.6 357.79 317.6Z" id="a7gGDsBtL"></path><linearGradient id="gradientd6obJF6JuZ" gradientUnits="userSpaceOnUse" x1="239.67" y1="382.87" x2="239.67" y2="526.16"><stop style="stop-color: #53aae6;stop-opacity: 1" offset="0%"></stop><stop style="stop-color: #a4d2f0;stop-opacity: 1" offset="100%"></stop></linearGradient><path d="M161.57 472.98C161.57 469.85 161.57 444.86 161.57 441.73C161.57 435.25 166.82 430 173.3 430C179.78 430 185.03 435.25 185.03 441.73C185.03 444.86 185.03 469.85 185.03 472.98C185.03 479.45 179.78 484.71 173.3 484.71C166.82 484.71 161.57 479.45 161.57 472.98Z" id="blxQx7jk8"></path><path d="M294.32 472.98C294.32 469.85 294.32 444.86 294.32 441.73C294.32 435.25 299.57 430 306.04 430C312.52 430 317.77 435.25 317.77 441.73C317.77 444.86 317.77 469.85 317.77 472.98C317.77 479.45 312.52 484.71 306.04 484.71C299.57 484.71 294.32 479.45 294.32 472.98Z" id="b7wHFWJ9Jj"></path><path d="M239.67 432.38C271.77 432.38 302.85 426.01 331.19 413.93C339.85 410.24 343.48 399.93 339.06 391.63C335.15 384.3 326.29 381.16 318.65 384.42C294.66 394.65 267.9 400.37 239.67 400.37C179.36 400.37 125.74 374.28 91.58 333.79C82.84 341.55 76.33 351.12 73.16 361.29C77.21 365.68 81.48 369.94 85.98 374.04C127.18 411.66 181.76 432.38 239.67 432.38Z" id="gwzARbfKX"></path><path d="M437.33 224.7C437.33 318.91 353.68 395.29 250.49 395.29C147.31 395.29 63.65 318.91 63.65 224.7C63.65 130.49 147.31 54.12 250.49 54.12C353.68 54.12 437.33 130.49 437.33 224.7Z" id="h20usDTde"></path><linearGradient id="gradientfiYlbYgUD" gradientUnits="userSpaceOnUse" x1="250.49" y1="560.31" x2="250.49" y2="224.21"><stop style="stop-color: #f2ae6f;stop-opacity: 1" offset="0%"></stop><stop style="stop-color: #f2d1a5;stop-opacity: 1" offset="100%"></stop></linearGradient><path d="M307.77 206.33C324.23 208.81 335.57 224.17 333.09 240.64C330.61 257.1 315.25 268.44 298.78 265.96C282.32 263.48 270.98 248.12 273.46 231.65C275.94 215.19 291.3 203.85 307.77 206.33Z" id="e5qQOZyg8F"></path><path d="M181.19 206.39C197.62 209.09 208.75 224.6 206.06 241.03C203.36 257.46 187.85 268.6 171.42 265.9C154.99 263.2 143.85 247.7 146.55 231.26C149.25 214.83 164.75 203.7 181.19 206.39Z" id="cgXoieE0R"></path><path d="M233.28 291.7C237.1 295.25 242.24 295.24 246.06 291.7C249.16 288.83 254 289.01 256.87 292.11C259.75 295.2 259.56 300.05 256.47 302.92C246.73 311.94 232.61 311.94 222.88 302.92C219.78 300.05 219.6 295.2 222.47 292.11C223.98 290.48 226.03 289.66 228.08 289.66C229.94 289.66 231.81 290.33 233.28 291.7Z" id="e3YNWuLAe"></path><path d="M415.06 223.17C424.55 227.64 435.73 222.25 438.1 212.02C447.75 170.33 444.72 94.09 363.08 100.66C345.68 171.92 381.77 207.46 415.06 223.17Z" id="eaIf64oX0"></path><linearGradient id="gradientd1vNX4TPoA" gradientUnits="userSpaceOnUse" x1="400.25" y1="104.01" x2="400.25" y2="231.56"><stop style="stop-color: #4e5660;stop-opacity: 1" offset="0%"></stop><stop style="stop-color: #64768d;stop-opacity: 1" offset="100%"></stop></linearGradient><path d="M64.29 223.17C54.79 227.64 43.61 222.25 41.25 212.02C31.6 170.33 34.62 94.09 116.26 100.66C133.67 171.92 97.57 207.46 64.29 223.17Z" id="e1aPZ6hJns"></path><linearGradient id="gradientc3zYiLjXBR" gradientUnits="userSpaceOnUse" x1="79.09" y1="104.01" x2="79.09" y2="231.56"><stop style="stop-color: #4e5660;stop-opacity: 1" offset="0%"></stop><stop style="stop-color: #64768d;stop-opacity: 1" offset="100%"></stop></linearGradient><path d="M47.91 12.78C35.57 134.95 164.57 167.33 239.67 167.33C304.8 167.33 357.63 146.57 387.28 122.24C399.99 111.81 399.77 92.34 386.99 81.99C352.5 54.05 282.35 48.03 239.67 48.03C194.82 48.03 115.81 32.26 71.76 1.72C62.23 -4.89 49.08 1.24 47.91 12.78Z" id="g7q431rNn"></path><linearGradient id="gradientaAROGmrl" gradientUnits="userSpaceOnUse" x1="221.89" y1="187.83" x2="221.89" y2="-15.3"><stop style="stop-color: #4e5660;stop-opacity: 1" offset="0%"></stop><stop style="stop-color: #64768d;stop-opacity: 1" offset="100%"></stop></linearGradient><path d="M367.46 207.13C357.42 186.04 335.91 171.44 311.05 171.44C288.22 171.44 268.21 183.75 257.32 202.09C252.37 198.26 246.22 196.1 239.67 196.1C233.12 196.1 226.97 198.26 222.02 202.09C211.13 183.75 191.13 171.44 168.3 171.44C143.43 171.44 121.92 186.04 111.88 207.13C110.32 207.13 97.88 207.13 96.33 207.13C91.4 207.13 87.41 211.12 87.41 216.05C87.41 220.97 91.4 224.97 96.33 224.96C97.34 224.96 105.47 224.96 106.48 224.96C106.07 227.88 105.84 230.86 105.84 233.89C105.84 268.33 133.86 296.34 168.3 296.34C202.73 296.34 230.75 268.33 230.75 233.89C230.75 229.41 230.27 225.03 229.37 220.81C229.53 220.57 229.67 220.31 229.81 220.04C231.69 216.28 235.47 213.94 239.67 213.94C243.88 213.94 247.66 216.28 249.54 220.04C249.67 220.31 249.82 220.56 249.98 220.81C249.07 225.03 248.59 229.4 248.59 233.89C248.59 268.33 276.61 296.34 311.05 296.34C345.48 296.34 373.5 268.33 373.5 233.89C373.5 230.86 373.28 227.88 372.86 224.97C373.87 224.97 382 224.97 383.02 224.97C387.94 224.97 391.94 220.97 391.94 216.05C391.94 211.12 387.94 207.13 383.02 207.13C379.91 207.13 369.02 207.13 367.46 207.13ZM123.69 233.89C123.69 209.29 143.7 189.28 168.3 189.28C192.89 189.28 212.91 209.29 212.91 233.89C212.91 258.49 192.89 278.5 168.3 278.5C143.7 278.5 123.69 258.49 123.69 233.89ZM266.44 233.89C266.44 209.29 286.45 189.28 311.05 189.28C335.64 189.28 355.66 209.29 355.66 233.89C355.66 258.49 335.64 278.5 311.05 278.5C286.45 278.5 266.44 258.49 266.44 233.89Z" id="b2PhErNU8g"></path><path d="M319.92 237.42C319.92 247.4 311.82 255.5 301.84 255.5C291.86 255.5 283.76 247.4 283.76 237.42C283.76 227.45 291.86 219.35 301.84 219.35C311.82 219.35 319.92 227.45 319.92 237.42Z" id="coU0qJvwd"></path><path d="M196.46 238.35C196.46 248.33 188.36 256.43 178.38 256.43C168.41 256.43 160.31 248.33 160.31 238.35C160.31 228.37 168.41 220.27 178.38 220.27C188.36 220.27 196.46 228.37 196.46 238.35Z" id="c317vISKnz"></path></defs><g><g><g><use xlink:href="#bAaIh75Fu" opacity="1" fill="url(#gradientb3YsccpuYl)"></use><g><use xlink:href="#bAaIh75Fu" opacity="1" fill-opacity="0" stroke="#000000" stroke-width="1" stroke-opacity="0"></use></g></g><g><use xlink:href="#c41DFpYWwL" opacity="1" fill="url(#gradientc13IDU0LtF)"></use><g><use xlink:href="#c41DFpYWwL" opacity="1" fill-opacity="0" stroke="#000000" stroke-width="1" stroke-opacity="0"></use></g></g><g><use xlink:href="#k16WkS7VQA" opacity="1" fill="url(#gradientaEMcdAZT)"></use><g><use xlink:href="#k16WkS7VQA" opacity="1" fill-opacity="0" stroke="#000000" stroke-width="1" stroke-opacity="0"></use></g></g><g><use xlink:href="#av9c9iWU" opacity="1" fill="url(#gradientc474B0PIZi)"></use><g><use xlink:href="#av9c9iWU" opacity="1" fill-opacity="0" stroke="#000000" stroke-width="1" stroke-opacity="0"></use></g></g><g><use xlink:href="#e7O2kF6ue" opacity="1" fill="url(#gradienta3wbxaxfD1)"></use><g><use xlink:href="#e7O2kF6ue" opacity="1" fill-opacity="0" stroke="#000000" stroke-width="1" stroke-opacity="0"></use></g></g><g><use xlink:href="#ceqy8BBhe" opacity="1" fill="url(#gradientbXQKYl9NZ)"></use><g><use xlink:href="#ceqy8BBhe" opacity="1" fill-opacity="0" stroke="#000000" stroke-width="1" stroke-opacity="0"></use></g></g><g><use xlink:href="#a7gGDsBtL" opacity="1" fill="url(#gradientd6obJF6JuZ)"></use><g><use xlink:href="#a7gGDsBtL" opacity="1" fill-opacity="0" stroke="#000000" stroke-width="1" stroke-opacity="0"></use></g></g><g><use xlink:href="#blxQx7jk8" opacity="1" fill="#f2e07e" fill-opacity="1"></use><g><use xlink:href="#blxQx7jk8" opacity="1" fill-opacity="0" stroke="#000000" stroke-width="1" stroke-opacity="0"></use></g></g><g><use xlink:href="#b7wHFWJ9Jj" opacity="1" fill="#f2e07e" fill-opacity="1"></use><g><use xlink:href="#b7wHFWJ9Jj" opacity="1" fill-opacity="0" stroke="#000000" stroke-width="1" stroke-opacity="0"></use></g></g><g><use xlink:href="#gwzARbfKX" opacity="1" fill="#0099cf" fill-opacity="1"></use><g><use xlink:href="#gwzARbfKX" opacity="1" fill-opacity="0" stroke="#000000" stroke-width="1" stroke-opacity="0"></use></g></g><g><use xlink:href="#h20usDTde" opacity="1" fill="url(#gradientfiYlbYgUD)"></use><g><use xlink:href="#h20usDTde" opacity="1" fill-opacity="0" stroke="#000000" stroke-width="1" stroke-opacity="0"></use></g></g><g><use xlink:href="#e5qQOZyg8F" opacity="1" fill="#ffffff" fill-opacity="1"></use><g><use xlink:href="#e5qQOZyg8F" opacity="1" fill-opacity="0" stroke="#000000" stroke-width="1" stroke-opacity="0"></use></g></g><g><use xlink:href="#cgXoieE0R" opacity="1" fill="#ffffff" fill-opacity="1"></use><g><use xlink:href="#cgXoieE0R" opacity="1" fill-opacity="0" stroke="#000000" stroke-width="1" stroke-opacity="0"></use></g></g><g><use xlink:href="#e3YNWuLAe" opacity="1" fill="#3b3b44" fill-opacity="1"></use><g><use xlink:href="#e3YNWuLAe" opacity="1" fill-opacity="0" stroke="#000000" stroke-width="1" stroke-opacity="0"></use></g></g><g><use xlink:href="#eaIf64oX0" opacity="1" fill="url(#gradientd1vNX4TPoA)"></use><g><use xlink:href="#eaIf64oX0" opacity="1" fill-opacity="0" stroke="#000000" stroke-width="1" stroke-opacity="0"></use></g></g><g><use xlink:href="#e1aPZ6hJns" opacity="1" fill="url(#gradientc3zYiLjXBR)"></use><g><use xlink:href="#e1aPZ6hJns" opacity="1" fill-opacity="0" stroke="#000000" stroke-width="1" stroke-opacity="0"></use></g></g><g><use xlink:href="#g7q431rNn" opacity="1" fill="url(#gradientaAROGmrl)"></use><g><use xlink:href="#g7q431rNn" opacity="1" fill-opacity="0" stroke="#000000" stroke-width="1" stroke-opacity="0"></use></g></g><g><use xlink:href="#b2PhErNU8g" opacity="1" fill="#576372" fill-opacity="1"></use><g><use xlink:href="#b2PhErNU8g" opacity="1" fill-opacity="0" stroke="#000000" stroke-width="1" stroke-opacity="0"></use></g></g><g><use xlink:href="#coU0qJvwd" opacity="1" fill="#3b3b44" fill-opacity="1"></use></g><g><use xlink:href="#c317vISKnz" opacity="1" fill="#3b3b44" fill-opacity="1"></use></g></g></g></svg>