<svg id="Capa_1" enable-background="new 0 0 502 502" height="512" viewBox="0 0 502 502" width="512" xmlns="http://www.w3.org/2000/svg" xmlns:xlink="http://www.w3.org/1999/xlink"><linearGradient id="lg1"><stop offset="0" stop-color="#f2ae6f"/><stop offset="1" stop-color="#f2d1a5"/></linearGradient><linearGradient id="SVGID_1_" gradientUnits="userSpaceOnUse" x1="76.538" x2="27.088" xlink:href="#lg1" y1="216.953" y2="216.953"/><linearGradient id="SVGID_2_" gradientTransform="matrix(-1 0 0 1 -1626 0)" gradientUnits="userSpaceOnUse" x1="-2051.462" x2="-2100.912" xlink:href="#lg1" y1="216.953" y2="216.953"/><linearGradient id="SVGID_3_" gradientUnits="userSpaceOnUse" x1="136.112" x2="48.362" y1="422.584" y2="422.584"><stop offset="0" stop-color="#f4d952"/><stop offset="1" stop-color="#f9edaf"/></linearGradient><linearGradient id="lg2"><stop offset="0" stop-color="#74d2e8"/><stop offset="1" stop-color="#baeaf5"/></linearGradient><linearGradient id="SVGID_4_" gradientUnits="userSpaceOnUse" x1="155.046" x2="67.296" xlink:href="#lg2" y1="422.584" y2="422.584"/><linearGradient id="SVGID_5_" gradientTransform="matrix(-1 0 0 1 -1626 0)" gradientUnits="userSpaceOnUse" x1="-1972.954" x2="-2060.704" xlink:href="#lg2" y1="422.584" y2="422.584"/><linearGradient id="lg3"><stop offset="0" stop-color="#53aae6"/><stop offset="1" stop-color="#a4d2f0"/></linearGradient><linearGradient id="SVGID_6_" gradientUnits="userSpaceOnUse" x1="251" x2="251" xlink:href="#lg3" y1="425.651" y2="591.453"/><linearGradient id="SVGID_7_" gradientUnits="userSpaceOnUse" x1="251" x2="251" xlink:href="#lg3" y1="376.377" y2="516.867"/><linearGradient id="SVGID_8_" gradientUnits="userSpaceOnUse" x1="251" x2="251" xlink:href="#lg1" y1="555.338" y2="225.801"/><linearGradient id="lg4"><stop offset="0" stop-color="#4e5660"/><stop offset="1" stop-color="#64768d"/></linearGradient><linearGradient id="SVGID_9_" gradientUnits="userSpaceOnUse" x1="408.443" x2="408.443" xlink:href="#lg4" y1="102.96" y2="228.019"/><linearGradient id="SVGID_10_" gradientUnits="userSpaceOnUse" x1="93.557" x2="93.557" xlink:href="#lg4" y1="102.96" y2="228.019"/><linearGradient id="SVGID_11_" gradientUnits="userSpaceOnUse" x1="233.567" x2="233.567" xlink:href="#lg4" y1="185.143" y2="-14.025"/><g><path d="m118.553 211.369c0-28.025-22.719-50.744-50.744-50.744s-50.744 22.719-50.744 50.744c0 38.357 31.871 61.912 59.896 61.912s41.592-33.886 41.592-61.912z" fill="url(#SVGID_1_)"/><path d="m383.447 211.369c0-28.025 22.719-50.744 50.744-50.744s50.744 22.719 50.744 50.744c0 38.357-31.871 61.912-59.896 61.912s-41.592-33.886-41.592-61.912z" fill="url(#SVGID_2_)"/><path d="m157.745 343.168c-62.769 10.565-102.421 70.05-111.983 130.594-2.341 14.825 9.121 28.238 24.13 28.238h31.817l102.736-158.832z" fill="url(#SVGID_3_)"/><path d="m157.745 343.168c-38.925 6.552-68.956 31.92-88.439 64.684 13.971 3.145 24.459 16.381 24.459 32.237 0 18.198-13.813 32.95-30.853 32.95-5.933 0-11.472-1.792-16.176-4.892-.353 1.869-.678 3.741-.974 5.614-2.341 14.826 9.121 28.239 24.13 28.239h31.817l102.736-158.832z" fill="url(#SVGID_4_)"/><path d="m344.255 343.168c62.769 10.565 102.421 70.05 111.983 130.594 2.341 14.825-9.121 28.238-24.13 28.238h-31.817l-102.735-158.832z" fill="url(#SVGID_5_)"/><path d="m400.292 502c0-101.174-66.84-183.191-149.292-183.191s-149.292 82.017-149.292 183.191z" fill="url(#SVGID_6_)"/><path d="m366.809 312.374c41.284 11.149 68.497 58.361 33.482 89.52-32.593 29.004-88.392 52.757-138.994 61.901-6.814 1.231-13.781 1.231-20.595 0-50.602-9.143-106.401-32.897-138.994-61.901-35.014-31.159-7.802-78.371 33.482-89.52z" fill="url(#SVGID_7_)"/><path d="m185.923 476.219c-6.351 0-11.5-5.148-11.5-11.5v-30.634c0-6.352 5.149-11.5 11.5-11.5s11.5 5.148 11.5 11.5v30.634c0 6.351-5.149 11.5-11.5 11.5z" fill="#f2e07e"/><path d="m316.077 476.219c-6.352 0-11.5-5.148-11.5-11.5v-30.634c0-6.352 5.148-11.5 11.5-11.5s11.5 5.148 11.5 11.5v30.634c0 6.351-5.148 11.5-11.5 11.5z" fill="#f2e07e"/><path d="m100.309 367.719c40.395 36.881 93.912 57.192 150.691 57.192 31.474 0 61.944-6.244 89.733-18.09 8.484-3.617 12.052-13.725 7.712-21.864-3.833-7.187-12.521-10.257-20.013-7.062-23.52 10.032-49.759 15.64-77.433 15.64-59.13 0-111.708-25.584-145.2-65.283-8.569 7.612-14.954 16.995-18.06 26.961 3.976 4.305 8.161 8.481 12.57 12.506z" fill="#0099cf"/><ellipse cx="251" cy="226.282" fill="url(#SVGID_8_)" rx="183.191" ry="167.253"/><g><ellipse cx="163.184" cy="262.026" fill="#eaadcd" rx="14.925" ry="11.994"/><ellipse cx="338.816" cy="262.026" fill="#eaadcd" rx="14.925" ry="11.994"/><ellipse cx="313.229" cy="232.469" fill="#fff" rx="29.557" ry="29.557" transform="matrix(.149 -.989 .989 .149 36.778 507.658)"/><path d="m295.658 233.916c.755 9.046 8.331 16.153 17.572 16.153s16.817-7.108 17.572-16.153z" fill="#3b3b44"/><path d="m313.229 202.912c-16.324 0-29.557 13.233-29.557 29.557 0 .485.013.968.037 1.447h59.04c.023-.48.037-.962.037-1.447 0-16.324-13.233-29.557-29.557-29.557z" fill="#e8aa70"/><ellipse cx="188.771" cy="232.469" fill="#fff" rx="29.557" ry="29.557" transform="matrix(.162 -.987 .987 .162 -71.159 381.173)"/><path d="m171.199 233.916c.755 9.046 8.331 16.153 17.572 16.153s16.817-7.108 17.572-16.153z" fill="#3b3b44"/><path d="m188.771 202.912c-16.324 0-29.557 13.233-29.557 29.557 0 .485.014.968.037 1.447h59.04c.023-.48.037-.962.037-1.447 0-16.324-13.234-29.557-29.557-29.557z" fill="#e8aa70"/><path d="m262.365 265.475c-1.824 0-3.654-.662-5.098-2-3.748-3.477-8.786-3.476-12.535 0-3.039 2.815-7.784 2.636-10.599-.4-2.816-3.037-2.637-7.783.4-10.6 9.542-8.846 23.392-8.846 32.934 0 3.037 2.816 3.217 7.563.4 10.6-1.478 1.593-3.487 2.4-5.502 2.4z" fill="#3b3b44"/></g><path d="m372.003 99.674c-17.067 69.866 18.324 104.719 50.957 120.113 9.31 4.392 20.27-.894 22.591-10.923 9.459-40.881 6.492-115.636-73.548-109.19z" fill="url(#SVGID_9_)"/><path d="m129.997 99.674c17.067 69.866-18.324 104.719-50.957 120.113-9.311 4.392-20.27-.894-22.591-10.923-9.459-40.881-6.492-115.636 73.548-109.19z" fill="url(#SVGID_10_)"/><path d="m86.368 2.663c-9.344-6.479-22.237-.467-23.38 10.846-12.1 119.781 114.375 151.532 188.012 151.532 63.859 0 115.654-20.356 144.723-44.205 12.467-10.228 12.244-29.319-.286-39.47-33.813-27.395-102.594-33.29-144.437-33.29-43.971 0-121.443-15.465-164.632-45.413z" fill="url(#SVGID_11_)"/></g></svg>